<svg width="16" height="16" viewBox="0 0 16 16" fill="none" xmlns="http://www.w3.org/2000/svg">
<path fill-rule="evenodd" clip-rule="evenodd" d="M2.52564 2.69231C3.20695 2.01099 4.00366 1.47527 4.91575 1.08516C5.82783 0.695055 6.80036 0.5 7.83333 0.5C8.8663 0.5 9.83882 0.695055 10.7509 1.08516C11.663 1.47527 12.4597 2.01099 13.141 2.69231C13.8223 3.37363 14.3581 4.17033 14.7482 5.08242C15.1383 5.9945 15.3333 6.96703 15.3333 8C15.3333 9.03297 15.1383 10.0055 14.7482 10.9176C14.3581 11.8297 13.8223 12.6236 13.141 13.2994C12.4597 13.9753 11.663 14.511 10.7509 14.9066C9.83882 15.3022 8.8663 15.5 7.83333 15.5C6.80036 15.5 5.82783 15.3022 4.91575 14.9066C4.00366 14.511 3.20695 13.9753 2.52564 13.2994C1.84432 12.6236 1.3086 11.8297 0.918493 10.9176C0.528383 10.0055 0.333328 9.03297 0.333328 8C0.333328 6.96703 0.528383 5.9945 0.918493 5.08242C1.3086 4.17033 1.84432 3.37363 2.52564 2.69231ZM12.4734 3.35989C11.8745 2.76099 11.1767 2.29121 10.38 1.95055C9.58333 1.60989 8.73443 1.43956 7.83333 1.43956C6.93223 1.43956 6.08333 1.60989 5.28662 1.95055C4.48992 2.29121 3.79212 2.76099 3.19322 3.35989C2.59432 3.95879 2.12454 4.65659 1.78388 5.4533C1.44322 6.25 1.27289 7.0989 1.27289 8C1.27289 8.9011 1.44322 9.75 1.78388 10.5467C2.12454 11.3434 2.59432 12.0385 3.19322 12.6319C3.79212 13.2253 4.48992 13.6951 5.28662 14.0412C6.08333 14.3874 6.93223 14.5604 7.83333 14.5604C8.73443 14.5604 9.58333 14.3874 10.38 14.0412C11.1767 13.6951 11.8745 13.2253 12.4734 12.6319C13.0723 12.0385 13.5421 11.3434 13.8828 10.5467C14.2234 9.75 14.3938 8.9011 14.3938 8C14.3938 7.0989 14.2234 6.25 13.8828 5.4533C13.5421 4.65659 13.0723 3.95879 12.4734 3.35989ZM8.57509 8.74176C8.78388 8.53297 8.88827 8.28022 8.88827 7.98352C8.88827 7.86264 8.8663 7.75824 8.82234 7.67033L10.9817 5.51099L10.3223 4.85165L8.17948 6.97802C7.9597 6.93407 7.81684 6.91209 7.75091 6.91209C7.68498 6.91209 7.59706 6.93407 7.48717 6.97802L4.42124 3.91209L3.74542 4.57143L6.81135 7.63736C6.76739 7.85714 6.74542 7.97253 6.74542 7.98352C6.74542 8.28022 6.84981 8.53297 7.0586 8.74176C7.26739 8.95055 7.52014 9.05494 7.81684 9.05494C8.11355 9.05494 8.3663 8.95055 8.57509 8.74176Z" fill="white"/>
</svg>

