<svg width="24" height="24" viewBox="0 0 24 24" fill="none" xmlns="http://www.w3.org/2000/svg">
<path fill-rule="evenodd" clip-rule="evenodd" d="M8.6609 15.2916C10.2416 16.8656 15.6289 22 18.4161 22C18.4949 21.9958 18.5734 21.9865 18.651 21.9722C19.3344 21.9186 19.9803 21.6395 20.4866 21.1793L21.6134 20.0573C22.1289 19.5038 22.1289 18.6482 21.6134 18.0947L17.3848 13.9079C16.829 13.3946 15.9698 13.3946 15.4139 13.9079L14.6175 14.7009C13.5898 13.9641 12.6267 13.1418 11.7388 12.2427C10.8359 11.3585 10.01 10.3995 9.2701 9.37618L10.0664 8.58323C10.5943 8.02696 10.5943 7.15711 10.0664 6.60084L5.86574 2.39423C5.3071 1.86859 4.43352 1.86859 3.87488 2.39423L3.03076 3.23476C2.43986 3.86895 2.08199 4.68366 2.01542 5.54622C1.70883 7.96076 6.04491 12.6907 8.6609 15.2916ZM4.73891 3.23872C4.78047 3.21261 4.82921 3.20013 4.87827 3.20304L4.85836 3.19907C4.90876 3.19531 4.95902 3.20782 5.00171 3.23476L9.21037 7.44534C9.23636 7.48683 9.24887 7.53528 9.24621 7.58411C9.24914 7.63296 9.2366 7.68149 9.21037 7.72287L7.77696 9.17398L8.01586 9.57046C8.84993 10.835 9.82355 12.0027 10.9185 13.0515C11.9701 14.1433 13.1414 15.1141 14.4105 15.9458L14.8087 16.1837L16.266 14.7326C16.3075 14.7065 16.3563 14.694 16.4053 14.6969C16.4544 14.6942 16.503 14.7067 16.5447 14.7326L20.7573 18.9352C20.8062 19.0227 20.8062 19.1292 20.7573 19.2167L19.6385 20.3308C19.3252 20.596 18.9371 20.758 18.5276 20.7947H18.4161C17.1579 20.7947 13.9168 18.844 9.50502 14.4511C4.64335 9.62596 3.07058 6.70789 3.20197 5.66119C3.24354 5.0729 3.48025 4.51504 3.87488 4.07529L4.73891 3.23872Z" fill="#E20074"/>
</svg>