<svg width="16" height="16" viewBox="0 0 16 16" fill="none" xmlns="http://www.w3.org/2000/svg">
<path fill-rule="evenodd" clip-rule="evenodd" d="M5.6623 10.4687C6.84785 11.6492 10.8883 15.5 12.9787 15.5C13.0378 15.4968 13.0967 15.4899 13.1549 15.4792C13.6674 15.4389 14.1519 15.2297 14.5316 14.8845L15.3767 14.0429C15.7633 13.6278 15.7633 12.9862 15.3767 12.571L12.2052 9.43093C11.7883 9.04598 11.1439 9.04598 10.727 9.43093L10.1298 10.0256C9.35897 9.47307 8.63669 8.85632 7.9707 8.18203C7.29354 7.51887 6.67415 6.79965 6.1192 6.03214L6.71646 5.43742C7.11237 5.02022 7.11237 4.36783 6.71646 3.95063L3.56593 0.79567C3.14695 0.401443 2.49177 0.401443 2.07279 0.79567L1.43969 1.42607C0.99652 1.90171 0.728116 2.51274 0.678193 3.15966C0.448249 4.97057 3.70031 8.51804 5.6623 10.4687ZM2.72081 1.42904C2.75198 1.40945 2.78854 1.40009 2.82533 1.40228L2.8104 1.39931C2.84819 1.39648 2.88589 1.40587 2.91791 1.42607L6.07441 4.584C6.09389 4.61512 6.10328 4.65146 6.10128 4.68808C6.10348 4.72472 6.09408 4.76112 6.07441 4.79215L4.99935 5.88048L5.17852 6.17784C5.80408 7.12627 6.53429 8.00199 7.35552 8.78864C8.14422 9.60748 9.02271 10.3356 9.97449 10.9594L10.2731 11.1378L11.3661 10.0494C11.3973 10.0298 11.4338 10.0205 11.4706 10.0227C11.5074 10.0207 11.5439 10.03 11.5751 10.0494L14.7346 13.2014C14.7713 13.2671 14.7713 13.3469 14.7346 13.4125L13.8955 14.2481C13.6605 14.447 13.3695 14.5685 13.0623 14.596H12.9787C12.035 14.596 9.60419 13.133 6.29539 9.83831C2.64914 6.21947 1.46956 4.03092 1.56811 3.2459C1.59928 2.80468 1.77681 2.38628 2.07279 2.05647L2.72081 1.42904Z" fill="white"/>
</svg>
