<svg width="18" height="18" viewBox="0 0 18 18" fill="none" xmlns="http://www.w3.org/2000/svg">
<path fill-rule="evenodd" clip-rule="evenodd" d="M9.0022 10.1112C10.2453 10.1112 11.2522 9.10462 11.2522 7.86122V5.98584C11.2522 4.74384 10.2453 3.73584 9.0022 3.73584C7.75963 3.73584 6.7522 4.74384 6.7522 5.98584V7.86122C6.7522 9.10462 7.75963 10.1112 9.0022 10.1112ZM14.3459 9.28856C15.278 9.28856 16.0334 8.53312 16.0334 7.60134V6.4755C16.0334 5.54428 15.278 4.788 14.3459 4.788C13.4144 4.788 12.6584 5.54428 12.6584 6.4755V7.60134C12.6584 8.5334 13.4142 9.28856 14.3459 9.28856ZM13.5022 6.4755C13.5022 6.01031 13.8808 5.63175 14.3459 5.63175C14.8111 5.63175 15.1897 6.01031 15.1897 6.4755V7.60134C15.1897 8.06625 14.8111 8.44481 14.3459 8.44481C13.8808 8.44481 13.5022 8.06625 13.5022 7.60134V6.4755ZM2.48845 10.6875H4.82901C4.9522 10.6875 5.06863 10.7125 5.17888 10.7505C5.45226 10.5604 5.75348 10.4091 6.07551 10.3025C5.7397 10.017 5.30489 9.84375 4.82901 9.84375H2.48845C1.42588 9.84375 0.564697 10.7016 0.564697 11.761V12.6562H1.40845V11.761C1.40845 11.1693 1.89304 10.6875 2.48845 10.6875ZM17.4397 11.761V12.6562H16.5959V11.761C16.5959 11.169 16.1116 10.6875 15.5165 10.6875H13.1759C13.0553 10.6875 12.9414 10.7117 12.8331 10.7482C12.5583 10.5576 12.2554 10.406 11.932 10.2999C12.2672 10.0159 12.7012 9.84375 13.1759 9.84375H15.5165C16.5785 9.84375 17.4397 10.7018 17.4397 11.761ZM5.34595 7.60134C5.34595 8.53312 4.59051 9.28856 3.65845 9.28856C2.72667 9.28856 1.97095 8.5334 1.97095 7.60134V6.4755C1.97095 5.54428 2.72695 4.788 3.65845 4.788C4.59079 4.788 5.34595 5.54428 5.34595 6.4755V7.60134ZM2.8147 6.4755C2.8147 6.01031 3.19326 5.63175 3.65845 5.63175C4.12363 5.63175 4.5022 6.01031 4.5022 6.4755V7.60134C4.5022 8.06625 4.12363 8.44481 3.65845 8.44481C3.19326 8.44481 2.8147 8.06625 2.8147 7.60134V6.4755ZM4.22601 13.6448V14.9062H5.06976V13.6448C5.06976 12.4793 6.0111 11.5312 7.16817 11.5312H10.8464C12.0034 11.5312 12.9448 12.4796 12.9448 13.6448V14.9062H13.7885V13.6448C13.7885 12.0111 12.4711 10.6875 10.8464 10.6875H7.16817C5.54339 10.6875 4.22601 12.0111 4.22601 13.6448ZM9.0022 4.57959C8.22679 4.57959 7.59595 5.21043 7.59595 5.98584V7.86122C7.59595 8.63662 8.22679 9.26747 9.0022 9.26747C9.7776 9.26747 10.4084 8.63662 10.4084 7.86122V5.98584C10.4084 5.21043 9.7776 4.57959 9.0022 4.57959Z" fill="white"/>
</svg>

