<svg width="38" height="26" viewBox="0 0 38 26" fill="none" xmlns="http://www.w3.org/2000/svg">
<path fill-rule="evenodd" clip-rule="evenodd" d="M19.005 14.4694C21.7675 14.4694 24.005 12.2325 24.005 9.46938V5.30188C24.005 2.54188 21.7675 0.30188 19.005 0.30188C16.2438 0.30188 14.005 2.54188 14.005 5.30188V9.46938C14.005 12.2325 16.2438 14.4694 19.005 14.4694ZM30.88 12.6413C32.9513 12.6413 34.63 10.9625 34.63 8.89188V6.39001C34.63 4.32063 32.9513 2.64001 30.88 2.64001C28.81 2.64001 27.13 4.32063 27.13 6.39001V8.89188C27.13 10.9631 28.8094 12.6413 30.88 12.6413ZM29.005 6.39C29.005 5.35626 29.8463 4.51501 30.88 4.51501C31.9138 4.51501 32.755 5.35626 32.755 6.39V8.89188C32.755 9.925 31.9138 10.7663 30.88 10.7663C29.8463 10.7663 29.005 9.925 29.005 8.89188V6.39ZM4.53 15.75H9.73126C10.005 15.75 10.2638 15.8056 10.5088 15.89C11.1163 15.4675 11.7856 15.1313 12.5013 14.8944C11.755 14.26 10.7888 13.875 9.73126 13.875H4.53C2.16876 13.875 0.255005 15.7813 0.255005 18.1356V20.125H2.13001V18.1356C2.13001 16.8206 3.20688 15.75 4.53 15.75ZM37.755 18.1356V20.125H35.88V18.1356C35.88 16.82 34.8038 15.75 33.4813 15.75H28.28C28.0119 15.75 27.7588 15.8038 27.5181 15.885C26.9075 15.4613 26.2344 15.1244 25.5156 14.8888C26.2606 14.2575 27.225 13.875 28.28 13.875H33.4813C35.8413 13.875 37.755 15.7819 37.755 18.1356ZM10.88 8.89188C10.88 10.9625 9.20125 12.6413 7.13 12.6413C5.05938 12.6413 3.38 10.9631 3.38 8.89188V6.39001C3.38 4.32063 5.06 2.64001 7.13 2.64001C9.20188 2.64001 10.88 4.32063 10.88 6.39001V8.89188ZM5.255 6.39C5.255 5.35626 6.09625 4.51501 7.13 4.51501C8.16375 4.51501 9.005 5.35626 9.005 6.39V8.89188C9.005 9.925 8.16375 10.7663 7.13 10.7663C6.09625 10.7663 5.255 9.925 5.255 8.89188V6.39ZM8.39125 22.3219V25.125H10.2663V22.3219C10.2663 19.7319 12.3581 17.625 14.9294 17.625H23.1031C25.6744 17.625 27.7663 19.7325 27.7663 22.3219V25.125H29.6413V22.3219C29.6413 18.6913 26.7138 15.75 23.1031 15.75H14.9294C11.3188 15.75 8.39125 18.6913 8.39125 22.3219ZM19.005 2.17688C17.2819 2.17688 15.88 3.57875 15.88 5.30188V9.46938C15.88 11.1925 17.2819 12.5944 19.005 12.5944C20.7281 12.5944 22.13 11.1925 22.13 9.46938V5.30188C22.13 3.57875 20.7281 2.17688 19.005 2.17688Z" fill="#E20074"/>
</svg>
