<svg width="18" height="18" viewBox="0 0 24 24" fill="none" xmlns="http://www.w3.org/2000/svg">
<path fill-rule="evenodd" clip-rule="evenodd" d="M12.003 13.4816C13.6605 13.4816 15.003 12.1395 15.003 10.4816V7.98114C15.003 6.32514 13.6605 4.98114 12.003 4.98114C10.3462 4.98114 9.00299 6.32514 9.00299 7.98114V10.4816C9.00299 12.1395 10.3462 13.4816 12.003 13.4816ZM19.128 12.3848C20.3707 12.3848 21.378 11.3775 21.378 10.1351V8.63402C21.378 7.39239 20.3707 6.38402 19.128 6.38402C17.886 6.38402 16.878 7.39239 16.878 8.63402V10.1351C16.878 11.3779 17.8856 12.3848 19.128 12.3848ZM18.003 8.63402C18.003 8.01377 18.5077 7.50902 19.128 7.50902C19.7482 7.50902 20.253 8.01377 20.253 8.63402V10.1351C20.253 10.755 19.7482 11.2598 19.128 11.2598C18.5077 11.2598 18.003 10.755 18.003 10.1351V8.63402ZM3.31799 14.25H6.43874C6.60299 14.25 6.75824 14.2834 6.90524 14.334C7.26974 14.0805 7.67137 13.8788 8.10074 13.7366C7.65299 13.356 7.07324 13.125 6.43874 13.125H3.31799C1.90124 13.125 0.752991 14.2688 0.752991 15.6814V16.875H1.87799V15.6814C1.87799 14.8924 2.52412 14.25 3.31799 14.25ZM23.253 15.6814V16.875H22.128V15.6814C22.128 14.892 21.4822 14.25 20.6887 14.25H17.568C17.4071 14.25 17.2552 14.2823 17.1109 14.331C16.7445 14.0768 16.3406 13.8746 15.9094 13.7333C16.3564 13.3545 16.935 13.125 17.568 13.125H20.6887C22.1047 13.125 23.253 14.2691 23.253 15.6814ZM7.12799 10.1351C7.12799 11.3775 6.12074 12.3848 4.87799 12.3848C3.63562 12.3848 2.62799 11.3779 2.62799 10.1351V8.63402C2.62799 7.39239 3.63599 6.38402 4.87799 6.38402C6.12112 6.38402 7.12799 7.39239 7.12799 8.63402V10.1351ZM3.75299 8.63402C3.75299 8.01377 4.25774 7.50902 4.87799 7.50902C5.49824 7.50902 6.00299 8.01377 6.00299 8.63402V10.1351C6.00299 10.755 5.49824 11.2598 4.87799 11.2598C4.25774 11.2598 3.75299 10.755 3.75299 10.1351V8.63402ZM5.63474 18.1931V19.875H6.75974V18.1931C6.75974 16.6391 8.01487 15.375 9.55762 15.375H14.4619C16.0046 15.375 17.2597 16.6395 17.2597 18.1931V19.875H18.3847V18.1931C18.3847 16.0148 16.6282 14.25 14.4619 14.25H9.55762C7.39124 14.25 5.63474 16.0148 5.63474 18.1931ZM12.003 6.10614C10.9691 6.10614 10.128 6.94727 10.128 7.98114V10.4816C10.128 11.5155 10.9691 12.3566 12.003 12.3566C13.0369 12.3566 13.878 11.5155 13.878 10.4816V7.98114C13.878 6.94727 13.0369 6.10614 12.003 6.10614Z" fill="#E20074"/>
</svg>
