<svg width='20' height='19' viewBox='0 0 20 19' fill='none' xmlns='http://www.w3.org/2000/svg'>
    <path d="M19.778 8.547L10 0 0.222 8.547a0.639 0.639 0 0 0 -0.22 0.44 0.56 0.56 0 0 0 0.154 0.45 0.647 0.647 0 0 0 0.429 0.209 0.578 0.578 0 0 0 0.45 -0.154L10 1.648l8.965 7.844a0.484 0.484 0 0 0 0.351 0.154 0.713 0.713 0 0 0 0.528 -0.198 0.594 0.594 0 0 0 0.154 -0.461 0.639 0.639 0 0 0 -0.22 -0.44zM16.24 8.745v8.745H3.76L3.738 8.723l-1.23 1.099v8.305a0.607 0.607 0 0 0 0.175 0.429 0.578 0.578 0 0 0 0.44 0.187h13.754a0.579 0.579 0 0 0 0.44 -0.187 0.607 0.607 0 0 0 0.176 -0.429V9.822L16.24 8.745z" fill="#E20074" fill-rule="evenodd" />
</svg>



