<svg width="40" height="40" viewBox="0 0 40 40" fill="none" xmlns="http://www.w3.org/2000/svg">
<path fill-rule="evenodd" clip-rule="evenodd" d="M36.2797 5.41485L28.6917 13.0029L32.7305 17.0417H22.9394V7.25067L26.9782 11.2895L34.5663 3.70141C34.7893 3.46641 35.099 3.33333 35.423 3.33333C35.747 3.33333 36.0567 3.46641 36.2797 3.70141C36.5147 3.92441 36.6478 4.23416 36.6478 4.55813C36.6478 4.8821 36.5147 5.19185 36.2797 5.41485ZM29.0221 36.6238C30.3761 36.4439 31.616 35.7706 32.5041 34.7329L33.5566 33.6804C34.3648 32.8206 34.3648 31.4805 33.5566 30.6207L27.0761 24.1708C26.2152 23.3656 24.8774 23.3656 24.0164 24.1708L22.7926 25.3947C21.213 24.2576 19.7329 22.9883 18.3682 21.6007C16.9806 20.236 15.7113 18.7559 14.5742 17.1763L15.7981 15.9525C16.5903 15.0982 16.5903 13.7777 15.7981 12.9234L9.32986 6.42455C8.4713 5.61326 7.12872 5.61326 6.27016 6.42455L5.24822 7.47709C4.212 8.37152 3.53932 9.61456 3.35732 10.9713C2.83105 15.1447 11.1045 23.7731 13.6624 26.3371C16.1102 28.7849 24.3224 36.6667 28.6305 36.6667C28.7617 36.659 28.8924 36.6447 29.0221 36.6238ZM14.5252 14.2207L8.03255 7.72798C7.96945 7.68624 7.89334 7.66885 7.81837 7.67903C7.74297 7.67453 7.66807 7.69379 7.60419 7.7341L6.55165 8.78664C6.53669 8.80198 6.52141 8.81762 6.50586 8.83353C6.01892 9.3318 5.25837 10.11 5.19314 11.1181V11.1854C4.94225 12.905 7.89792 17.978 14.9536 25.0153C21.7155 31.7467 26.6967 34.8064 28.6244 34.8064H28.8079H28.8752C29.9094 34.7452 30.7233 33.9313 31.2067 33.4479L32.2593 32.3953C32.3322 32.2597 32.3322 32.0965 32.2593 31.9608L25.7727 25.4743C25.7098 25.4319 25.6341 25.4124 25.5585 25.4192C25.4831 25.4147 25.4082 25.434 25.3444 25.4743L23.1046 27.714L22.4927 27.3468C20.5394 26.0646 18.737 24.5661 17.1199 22.8796C15.4368 21.2593 13.9386 19.4574 12.6527 17.5068L12.2855 16.8949L14.5252 14.6552C14.5981 14.5195 14.5981 14.3563 14.5252 14.2207Z" fill="#E20074"/>
</svg>
