<svg width="56" height="27" viewBox="0 0 56 27" fill="none" xmlns="http://www.w3.org/2000/svg">
<path d="M0.959961 17.788V12.4674H6.31996V17.788H0.959961ZM17.36 17.788V12.4674H22.72V17.788H17.36ZM33.52 17.788V12.4674H38.88V17.788H33.52ZM49.68 17.788V12.4674H55.04V17.788H49.68Z" fill="#E20074"/>
<path d="M22.48 0.317566H1.19996L0.959961 9.60874L2.39996 9.84698C2.63996 7.06757 3.35996 5.08227 4.55996 3.73227C5.75996 2.38227 7.51996 1.58815 9.67996 1.58815V21.1234C9.67996 22.7911 9.43996 23.9029 8.95996 24.4587C8.55996 24.8558 7.83996 25.1734 6.79996 25.2529H5.27996V26.7617H18.4V25.2529H16.88C15.84 25.1734 15.12 24.8558 14.72 24.4587C14.24 23.9823 14 22.8705 14 21.1234V1.58815C16.24 1.66757 17.92 2.38227 19.2 3.73227C20.4 5.08227 21.12 7.06757 21.36 9.84698L22.8 9.60874L22.48 0.317566Z" fill="#E20074"/>
</svg>
