<svg width="70" height="34" viewBox="0 0 70 34" fill="none" xmlns="http://www.w3.org/2000/svg">
<path d="M1.20001 22.4V15.7H7.90001V22.4H1.20001ZM21.7 22.4V15.7H28.4V22.4H21.7ZM41.9 22.4V15.7H48.6V22.4H41.9ZM62.1 22.4V15.7H68.8V22.4H62.1V22.4Z" fill="#E20074"/>
<path d="M28.1 0.399994H1.50001L1.20001 12.1L3.00001 12.4C3.30001 8.89999 4.20001 6.39999 5.70001 4.69999C7.20001 2.99999 9.40001 1.99999 12.1 1.99999V26.6C12.1 28.7 11.8 30.1 11.2 30.8C10.7 31.3 9.80001 31.7 8.50001 31.8H6.60001V33.7H23V31.8H21.1C19.8 31.7 18.9 31.3 18.4 30.8C17.8 30.2 17.5 28.8 17.5 26.6V1.99999C20.3 2.09999 22.4 2.99999 24 4.69999C25.5 6.39999 26.4 8.89999 26.7 12.4L28.5 12.1L28.1 0.399994Z" fill="#E20074"/>
</svg>
