<svg width="24" height="24" viewBox="0 0 24 24" fill="none" xmlns="http://www.w3.org/2000/svg">
<path fill-rule="evenodd" clip-rule="evenodd" d="M21.3846 6.23077H2.61538C2.43956 6.23077 2.29304 6.17582 2.17582 6.06593C2.05861 5.95604 2 5.80586 2 5.61538C2 5.42491 2.05861 5.27473 2.17582 5.16483C2.29304 5.05494 2.43956 5 2.61538 5H21.3846C21.5604 5 21.707 5.05494 21.8242 5.16483C21.9414 5.27473 22 5.42491 22 5.61538C22 5.80586 21.9414 5.95604 21.8242 6.06593C21.707 6.17582 21.5604 6.23077 21.3846 6.23077ZM2.61538 17.4835H21.3846C21.5604 17.4835 21.707 17.5421 21.8242 17.6593C21.9414 17.7766 22 17.9304 22 18.1209C22 18.3114 21.9414 18.4615 21.8242 18.5714C21.707 18.6813 21.5604 18.7363 21.3846 18.7363H2.61538C2.43956 18.7363 2.29304 18.6813 2.17582 18.5714C2.05861 18.4615 2 18.3114 2 18.1209C2 17.9304 2.05861 17.7766 2.17582 17.6593C2.29304 17.5421 2.43956 17.4835 2.61538 17.4835ZM21.3846 11.2418H2.61538C2.43956 11.2418 2.29304 11.3004 2.17582 11.4176C2.05861 11.5348 2 11.685 2 11.8681C2 12.0513 2.05861 12.2015 2.17582 12.3187C2.29304 12.4359 2.43956 12.4945 2.61538 12.4945H21.3846C21.5604 12.4945 21.707 12.4359 21.8242 12.3187C21.9414 12.2015 22 12.0513 22 11.8681C22 11.685 21.9414 11.5348 21.8242 11.4176C21.707 11.3004 21.5604 11.2418 21.3846 11.2418Z" fill="#262626"/>
</svg>

