<svg width="24" height="24" viewBox="0 0 24 24" fill="none" xmlns="http://www.w3.org/2000/svg">
<path fill-rule="evenodd" clip-rule="evenodd" d="M8.24176 6.73626C8.24176 5.71062 8.60806 4.8315 9.34066 4.0989C10.0733 3.3663 10.9597 3 12 3C13.0403 3 13.9267 3.3663 14.6593 4.0989C15.3919 4.8315 15.7582 5.71062 15.7582 6.73626V10.4945C15.7582 11.5348 15.3919 12.4212 14.6593 13.1538C13.9267 13.8864 13.0403 14.2527 12 14.2527C10.9597 14.2527 10.0733 13.8864 9.34066 13.1538C8.60806 12.4212 8.24176 11.5348 8.24176 10.4945V6.73626ZM14.5055 6.73626C14.5055 6.04762 14.2601 5.46154 13.7692 4.97802C13.2784 4.49451 12.6886 4.25275 12 4.25275C11.3114 4.25275 10.7216 4.49451 10.2308 4.97802C9.73993 5.46154 9.49451 6.04762 9.49451 6.73626V10.4945C9.49451 11.1832 9.73993 11.7729 10.2308 12.2637C10.7216 12.7546 11.3114 13 12 13C12.6886 13 13.2784 12.7546 13.7692 12.2637C14.2601 11.7729 14.5055 11.1832 14.5055 10.4945V6.73626ZM20.967 16.5275C20.2784 15.8315 19.4432 15.4835 18.4615 15.4835H5.53846C4.55678 15.4835 3.72161 15.8315 3.03297 16.5275C2.34432 17.2234 2 18.0623 2 19.044V20.4945H3.25275V19.044C3.25275 18.4139 3.47619 17.8718 3.92308 17.4176C4.36996 16.9634 4.90842 16.7363 5.53846 16.7363H18.4615C19.0916 16.7363 19.63 16.9634 20.0769 17.4176C20.5238 17.8718 20.7473 18.4139 20.7473 19.044V20.4945H22V19.044C22 18.0623 21.6557 17.2234 20.967 16.5275Z" fill="#E20074"/>
</svg>
