<svg width="19" height="18" viewBox="0 0 19 18" fill="none" xmlns="http://www.w3.org/2000/svg">
<path fill-rule="evenodd" clip-rule="evenodd" d="M4.17346 9.00943C4.17346 7.52516 4.70259 6.26101 5.76086 5.21698C6.71713 4.27359 7.84552 3.75786 9.14604 3.66981C9.32455 3.65723 9.4903 3.65094 9.6433 3.65094C10.7526 3.65094 11.779 3.97799 12.7225 4.63208L10.4657 6.87736H15.8973V1.5L13.5066 3.87736C12.3591 3.02201 11.0713 2.58805 9.6433 2.57547C9.47755 2.57547 9.3118 2.58176 9.14604 2.59434C7.48851 2.72013 6.10512 3.34277 4.99585 4.46226C3.72082 5.74528 3.08331 7.26101 3.08331 9.00943C3.08331 9.16038 3.13431 9.28616 3.23632 9.38679C3.33832 9.48742 3.46582 9.53774 3.61882 9.53774C3.77182 9.53774 3.90251 9.48742 4.01089 9.38679C4.11927 9.28616 4.17346 9.16038 4.17346 9.00943ZM15.1992 8.62264C15.0908 8.72956 15.0366 8.85849 15.0366 9.00943C15.0366 10.4937 14.5075 11.7579 13.4492 12.8019C12.493 13.7453 11.3646 14.261 10.0641 14.3491C9.88556 14.3616 9.7198 14.3679 9.5668 14.3679C8.45753 14.3679 7.43114 14.0409 6.48762 13.3868L8.74441 11.1415H3.31282V16.5L5.70348 14.1415C6.851 14.9969 8.13878 15.4308 9.5668 15.4434C9.73255 15.4434 9.89831 15.4371 10.0641 15.4245C11.7216 15.2987 13.105 14.6761 14.2143 13.5566C14.8645 12.9025 15.3427 12.1918 15.6487 11.4245C15.9674 10.6321 16.1268 9.82704 16.1268 9.00943C16.1268 8.85849 16.0758 8.72956 15.9738 8.62264C15.8718 8.51572 15.7443 8.46226 15.5913 8.46226C15.4383 8.46226 15.3076 8.51572 15.1992 8.62264Z" fill="white"/>
</svg>
