<svg width="24" height="24" viewBox="0 0 24 24" fill="none" xmlns="http://www.w3.org/2000/svg">
<path fill-rule="evenodd" clip-rule="evenodd" d="M12.1758 2.57444C13.0668 2.95741 13.8445 3.48105 14.5088 4.14537C15.1731 4.80969 15.7007 5.58734 16.0914 6.47831C16.4822 7.36929 16.6776 8.31888 16.6776 9.32708C16.6776 10.3353 16.4822 11.2849 16.0914 12.1758C15.7007 13.0668 15.1731 13.8445 14.5088 14.5088C13.8445 15.1731 13.0668 15.6968 12.1758 16.0797C11.2849 16.4627 10.3353 16.6542 9.32708 16.6542C8.31887 16.6542 7.36928 16.4627 6.47831 16.0797C5.58734 15.6968 4.80969 15.1731 4.14537 14.5088C3.48105 13.8445 2.95741 13.0668 2.57444 12.1758C2.19148 11.2849 2 10.3353 2 9.32708C2 8.31888 2.19148 7.36929 2.57444 6.47831C2.95741 5.58734 3.48495 4.80578 4.15709 4.13365C5.57952 2.71122 7.30676 2 9.3388 2C10.3392 2 11.2849 2.19148 12.1758 2.57444ZM3.21923 9.3388C3.21923 7.65065 3.81712 6.20868 5.0129 5.0129C6.20868 3.81712 7.65065 3.21923 9.3388 3.21923C11.0426 3.21923 12.4807 3.82102 13.653 5.02462C14.841 6.22821 15.4349 7.66628 15.4349 9.3388C15.4349 10.9957 14.841 12.4338 13.653 13.653C12.4807 14.841 11.0426 15.4349 9.3388 15.4349C7.65065 15.4349 6.20868 14.837 5.0129 13.6413C3.81712 12.4455 3.21923 11.0113 3.21923 9.3388ZM14.755 16.3259L20.0774 21.6717C20.3118 21.8906 20.5776 22 20.8746 22C21.1716 22 21.4334 21.8867 21.66 21.66C21.8867 21.4334 22 21.1676 22 20.8628C22 20.558 21.8906 20.2962 21.6717 20.0774L16.3259 14.755C15.8882 15.3646 15.3646 15.8882 14.755 16.3259Z" fill="#262626"/>
</svg>
