<svg width="24" height="24" viewBox="0 0 24 24" fill="none" xmlns="http://www.w3.org/2000/svg">
<g clip-path="url(#clip0_2_3040)">
<path d="M2.25 3H8.4375C8.74687 3 9 3.25313 9 3.5625V3.9375C9 4.24688 8.74687 4.5 8.4375 4.5H2.25C1.8375 4.5 1.5 4.8375 1.5 5.25V18.75C1.5 19.1625 1.8375 19.5 2.25 19.5H8.4375C8.74687 19.5 9 19.7531 9 20.0625V20.4375C9 20.7469 8.74687 21 8.4375 21H2.25C1.00781 21 0 19.9922 0 18.75V5.25C0 4.00781 1.00781 3 2.25 3ZM15.3281 3.91406L14.9953 4.24687C14.775 4.46719 14.775 4.82344 14.9953 5.04375L21.1828 11.2031H8.0625C7.75313 11.2031 7.5 11.4563 7.5 11.7656V12.2344C7.5 12.5437 7.75313 12.7969 8.0625 12.7969H21.1828L15 18.9562C14.7797 19.1766 14.7797 19.5328 15 19.7531L15.3328 20.0859C15.5531 20.3062 15.9094 20.3062 16.1297 20.0859L23.8406 12.3984C24.0609 12.1781 24.0609 11.8219 23.8406 11.6016L16.125 3.91406C15.9047 3.69375 15.5484 3.69375 15.3281 3.91406Z" fill="#E20074"/>
</g>
<defs>
<clipPath id="clip0_2_3040">
<rect width="24" height="24" fill="white"/>
</clipPath>
</defs>
</svg>
