<svg width="24" height="24" viewBox="0 0 24 24" fill="none" xmlns="http://www.w3.org/2000/svg">
<path fill-rule="evenodd" clip-rule="evenodd" d="M2 12C2 6.48399 6.48399 2 12 2C17.516 2 22 6.48399 22 12C22 17.516 17.516 22 12 22C6.48399 22 2 17.516 2 12ZM20.9324 12C20.9324 7.05338 16.911 3.06762 12 3.06762C7.08897 3.06762 3.06762 7.05338 3.06762 12C3.06762 16.9466 7.08897 20.9324 12 20.9324C16.9466 20.9324 20.9324 16.911 20.9324 12ZM12.5694 6.62633H11.5018V8.04982H12.5694V6.62633ZM12.5338 15.879H13.7794V16.9466H10.2206V15.879H11.4662V10.5409H10.2206V9.47331H12.5338V15.879Z" fill="#E20074"/>
</svg>
