<svg width="24" height="24" viewBox="0 0 24 24" fill="none" xmlns="http://www.w3.org/2000/svg">
<path fill-rule="evenodd" clip-rule="evenodd" d="M20.6667 4.99998C21.0333 4.99998 21.3333 5.29346 21.3333 5.65216V5.97825H2.66666V5.65216C2.66666 5.29346 2.96666 4.99998 3.33333 4.99998H20.6667ZM1.99994 11.1957V6.63043H21.9999V11.1957H1.99994ZM16.3333 19.0217H20.3333V11.8478H21.3333V20H2.66666V11.8478H3.66666V19.0217H7.66666V11.8478H8.33333V19.0217H15.6667V11.8478H16.3333V19.0217ZM5.53322 8.45651C5.49988 8.13042 5.40022 7.86955 5.26655 7.70651C5.09988 7.54346 4.89988 7.44564 4.59988 7.44564V9.85868C4.59988 10.0543 4.63355 10.2174 4.69988 10.2826C4.76655 10.3478 4.83322 10.3804 4.96688 10.3804H5.16688V10.5435H3.50022V10.3478H3.70022C3.83355 10.3478 3.90055 10.3149 3.96722 10.2497C4.03355 10.1848 4.06722 10.054 4.06722 9.82575V7.41303C3.80055 7.41303 3.56722 7.51086 3.40055 7.6739C3.26722 7.83694 3.16722 8.09781 3.13388 8.4239L2.96722 8.39129L3.00055 7.28259H5.66722L5.70055 8.4239L5.53322 8.45651ZM3 8.913V9.56517H3.66666V8.913H3ZM7.66654 9.56517H6.99988V8.913H7.66654V9.56517ZM8.99999 9.56517H9.66666V8.913H8.99999V9.56517Z" fill="#E20074"/>
</svg>
